{
  "source": "C:\\Users\\Peter\\Desktop\\stuff\\MIUN\\quantitative_research\\video_compression\\videos\\BVI-HD\\BVI-HD_CDVL_videos\\ORIG\\Surfers_1920x1080_30fps.mp4",
  "output": "C:\\Users\\Peter\\Desktop\\stuff\\MIUN\\quantitative_research\\video_compression\\compressed_videos\\BVI-HD\\vp9\\2\\Surfers_1920x1080_30fps_vp9.webm",
  "codec": "vp9",
  "ok": "Input #0, mov,mp4,m4a,3gp,3g2,mj2, from 'C:\\Users\\Peter\\Desktop\\stuff\\MIUN\\quantitative_research\\video_compression\\videos\\BVI-HD\\BVI-HD_CDVL_videos\\ORIG\\Surfers_1920x1080_30fps.mp4':\n  Metadata:\n    major_brand     : isom\n    minor_version   : 512\n    compatible_brands: isomiso2avc1mp41\n    encoder         : Lavf54.28.101\n  Duration: 00:00:05.00, start: 0.000000, bitrate: 232762 kb/s\n  Stream #0:0[0x1](und): Video: h264 (High 4:4:4 Predictive) (avc1 / 0x31637661), yuv420p(progressive), 1920x1080, 232759 kb/s, 30 fps, 30 tbr, 30 tbn (default)\n    Metadata:\n      handler_name    : VideoHandler\n      vendor_id       : [0][0][0][0]\n[out#0/webm @ 000001fea7ab1280] Codec AVOption b:a (set bitrate (in bits/s)) has not been used for any stream. The most likely reason is either wrong type (e.g. a video option with no video streams) or that it is a private option of some decoder which was not actually used for any stream.\nStream mapping:\n  Stream #0:0 -> #0:0 (h264 (native) -> vp9 (libvpx-vp9))\nPress [q] to stop, [?] for help\n[libvpx-vp9 @ 000001fea80e02c0] v1.15.2-100-g40561f514\nOutput #0, webm, to 'C:\\Users\\Peter\\Desktop\\stuff\\MIUN\\quantitative_research\\video_compression\\compressed_videos\\BVI-HD\\vp9\\2\\Surfers_1920x1080_30fps_vp9.webm':\n  Metadata:\n    major_brand     : isom\n    minor_version   : 512\n    compatible_brands: isomiso2avc1mp41\n    encoder         : Lavf62.3.100\n  Stream #0:0(und): Video: vp9, yuv420p(tv, progressive), 1920x1080, q=2-31, 2000 kb/s, 30 fps, 1k tbn (default)\n    Metadata:\n      encoder         : Lavc62.11.100 libvpx-vp9\n      handler_name    : VideoHandler\n      vendor_id       : [0][0][0][0]\n    Side data:\n      cpb: bitrate max/min/avg: 0/0/0 buffer size: 2000000 vbv_delay: N/A\nframe=    0 fps=0.0 q=0.0 size=       0KiB time=N/A bitrate=N/A speed=N/A elapsed=0:00:00.53    \nframe=    6 fps=5.4 q=56.0 size=       1KiB time=00:00:00.20 bitrate=  25.4kbits/s speed=0.179x elapsed=0:00:01.11    \nframe=   11 fps=6.7 q=42.0 size=       1KiB time=00:00:00.36 bitrate=  13.8kbits/s speed=0.223x elapsed=0:00:01.64    \nframe=   16 fps=7.4 q=55.0 size=       1KiB time=00:00:00.53 bitrate=   9.5kbits/s speed=0.246x elapsed=0:00:02.17    \nframe=   21 fps=7.8 q=40.0 size=       1KiB time=00:00:00.70 bitrate=   7.2kbits/s speed=0.26x elapsed=0:00:02.68    \nframe=   26 fps=8.1 q=57.0 size=       1KiB time=00:00:00.86 bitrate=   5.9kbits/s speed=0.269x elapsed=0:00:03.22    \nframe=   31 fps=8.3 q=38.0 size=       1KiB time=00:00:01.03 bitrate=   4.9kbits/s speed=0.275x elapsed=0:00:03.75    \nframe=   37 fps=8.6 q=55.0 size=       1KiB time=00:00:01.23 bitrate=   4.1kbits/s speed=0.287x elapsed=0:00:04.30    \nframe=   41 fps=8.5 q=40.0 size=       1KiB time=00:00:01.36 bitrate=   3.7kbits/s speed=0.282x elapsed=0:00:04.84    \nframe=   46 fps=8.6 q=54.0 size=       1KiB time=00:00:01.53 bitrate=   3.3kbits/s speed=0.286x elapsed=0:00:05.35    \nframe=   50 fps=8.5 q=53.0 size=       1KiB time=00:00:01.66 bitrate=   3.0kbits/s speed=0.283x elapsed=0:00:05.88    \nframe=   55 fps=8.6 q=53.0 size=       1KiB time=00:00:01.83 bitrate=   2.8kbits/s speed=0.286x elapsed=0:00:06.39    \nframe=   60 fps=8.7 q=54.0 size=       1KiB time=00:00:02.00 bitrate=   2.5kbits/s speed=0.289x elapsed=0:00:06.91    \nframe=   65 fps=8.8 q=53.0 size=       1KiB time=00:00:02.16 bitrate=   2.3kbits/s speed=0.292x elapsed=0:00:07.42    \nframe=   69 fps=8.7 q=40.0 size=       1KiB time=00:00:02.30 bitrate=   2.2kbits/s speed=0.29x elapsed=0:00:07.94    \nframe=   74 fps=8.7 q=54.0 size=       1KiB time=00:00:02.46 bitrate=   2.1kbits/s speed=0.292x elapsed=0:00:08.46    \nframe=   79 fps=8.8 q=51.0 size=       1KiB time=00:00:02.63 bitrate=   1.9kbits/s speed=0.293x elapsed=0:00:08.97    \nframe=   83 fps=8.7 q=51.0 size=       1KiB time=00:00:02.76 bitrate=   1.8kbits/s speed=0.291x elapsed=0:00:09.49    \nframe=   87 fps=8.7 q=38.0 size=       1KiB time=00:00:02.90 bitrate=   1.7kbits/s speed=0.29x elapsed=0:00:10.01    \nframe=   92 fps=8.7 q=55.0 size=       1KiB time=00:00:03.06 bitrate=   1.7kbits/s speed=0.291x elapsed=0:00:10.55    \nframe=   96 fps=8.7 q=53.0 size=       1KiB time=00:00:03.20 bitrate=   1.6kbits/s speed=0.289x elapsed=0:00:11.08    \nframe=  101 fps=8.7 q=53.0 size=       1KiB time=00:00:03.36 bitrate=   1.5kbits/s speed=0.29x elapsed=0:00:11.62    \nframe=  105 fps=8.7 q=52.0 size=       1KiB time=00:00:03.50 bitrate=   1.4kbits/s speed=0.288x elapsed=0:00:12.13    \nframe=  109 fps=8.6 q=54.0 size=       1KiB time=00:00:03.63 bitrate=   1.4kbits/s speed=0.287x elapsed=0:00:12.66    \nframe=  114 fps=8.6 q=58.0 size=       1KiB time=00:00:03.80 bitrate=   1.3kbits/s speed=0.288x elapsed=0:00:13.18    \nframe=  119 fps=8.7 q=56.0 size=       1KiB time=00:00:03.96 bitrate=   1.3kbits/s speed=0.289x elapsed=0:00:13.73    \nframe=  123 fps=8.6 q=51.0 size=       1KiB time=00:00:04.10 bitrate=   1.2kbits/s speed=0.288x elapsed=0:00:14.25    \nframe=  126 fps=8.5 q=55.0 size=       1KiB time=00:00:04.20 bitrate=   1.2kbits/s speed=0.284x elapsed=0:00:14.77    \nframe=  126 fps=8.2 q=55.0 size=       1KiB time=00:00:04.20 bitrate=   1.2kbits/s speed=0.274x elapsed=0:00:15.31    \nframe=  126 fps=7.9 q=55.0 size=       1KiB time=00:00:04.20 bitrate=   1.2kbits/s speed=0.265x elapsed=0:00:15.85    \nframe=  126 fps=7.7 q=55.0 size=       1KiB time=00:00:04.20 bitrate=   1.2kbits/s speed=0.257x elapsed=0:00:16.37    \nframe=  126 fps=7.5 q=55.0 size=       1KiB time=00:00:04.20 bitrate=   1.2kbits/s speed=0.249x elapsed=0:00:16.88    \n[out#0/webm @ 000001fea7ab1280] video:1229KiB audio:0KiB subtitle:0KiB other streams:0KiB global headers:0KiB muxing overhead: 0.140005%\nframe=  150 fps=8.6 q=56.0 Lsize=    1231KiB time=00:00:05.00 bitrate=2016.5kbits/s speed=0.288x elapsed=0:00:17.34    \n",
  "seconds": 17.59281849861145,
  "probe_out": {}
}